<?xml version="1.0" encoding="UTF-8" standalone="no"?>
<svg
   xmlns:dc="http://purl.org/dc/elements/1.1/"
   xmlns:cc="http://creativecommons.org/ns#"
   xmlns:rdf="http://www.w3.org/1999/02/22-rdf-syntax-ns#"
   xmlns:svg="http://www.w3.org/2000/svg"
   xmlns="http://www.w3.org/2000/svg"
   viewBox="0 0 654.02667 253.32001"
   height="253.32001"
   width="654.02667"
   xml:space="preserve"
   id="svg2"
   version="1.1"><metadata
     id="metadata8"><rdf:RDF><cc:Work
         rdf:about=""><dc:format>image/svg+xml</dc:format><dc:type
           rdf:resource="http://purl.org/dc/dcmitype/StillImage" /></cc:Work></rdf:RDF></metadata><defs
     id="defs6" /><g
     transform="matrix(1.3333333,0,0,-1.3333333,0,253.32)"
     id="g10"><g
       transform="scale(0.1)"
       id="g12"><path
         id="path14"
         style="fill:#eb6c36;fill-opacity:1;fill-rule:evenodd;stroke:none"
         d="M 2992.57,1899.93 3368.07,0 1545.08,626.762 Z M 3038.58,377.672 2831.52,1425.32 2033.33,723.27 3038.58,377.672 v 0" /><g
         transform="scale(10)"
         id="g16"><text
           id="text20"
           style="font-variant:normal;font-weight:bold;font-size:13.99969959px;font-family:AkzidenzGroteskBQ;-inkscape-font-specification:AkzidenzGroteskBQ-Bold;writing-mode:lr-tb;fill:#171717;fill-opacity:1;fill-rule:nonzero;stroke:none"
           transform="matrix(1,0,0,-1,478.994,99.9656)"><tspan
             id="tspan18"
             y="0"
             x="0">®</tspan></text>
</g><path
         id="path22"
         style="fill:#181817;fill-opacity:1;fill-rule:evenodd;stroke:none"
         d="m 4719.93,730.379 v 281.251 h -26.69 V 886.148 h -172.89 v 125.482 h -26.3 V 730.379 h 26.3 v 131.859 h 172.89 V 730.379 Z m -442.19,215.523 c -13.15,30.672 -30.27,54.578 -62.94,65.728 -14.75,5.18 -30.68,7.17 -46.22,7.17 -23.9,0 -39.43,-4.78 -48.59,-8.76 -6.78,-3.19 -23.11,-11.556 -36.66,-27.485 -34.65,-40.239 -34.65,-99.606 -34.65,-113.145 0,-10.75 0.39,-68.121 30.67,-105.961 30.27,-38.648 76.48,-40.238 92.02,-40.238 30.28,0 49.4,7.969 60.16,14.738 11.95,7.571 30.27,23.5 44.22,53.781 l -25.1,15.141 c -1.59,-6.781 -4.79,-17.531 -15.14,-31.07 -15.93,-20.723 -35.46,-28.692 -60.94,-28.692 -70.52,0 -87.25,49.403 -92.84,75.301 -5.17,22.699 -5.17,41.82 -5.17,50.192 0,40.632 8.77,63.339 17.93,79.671 7.57,13.547 18.32,26.293 32.26,33.864 17.13,9.558 37.45,9.16 43.43,9.16 41.43,0 58.96,-18.723 68.92,-34.258 5.57,-9.16 9.56,-18.332 11.55,-28.68 l 27.09,13.543 z M 3849.89,807.27 c 0,30.671 -17.53,47.8 -26.29,54.968 -21.52,17.532 -56.97,24.703 -83.26,31.883 -18.33,4.77 -39.05,9.945 -51.39,26.281 -5.59,7.571 -8.37,16.332 -8.37,26.289 0,17.93 7.97,27.098 13.15,32.274 17.52,17.527 47.4,17.926 52.98,17.926 34.26,0 53.38,-17.129 61.35,-28.68 5.58,-7.57 8.76,-15.535 11.55,-24.301 l 24.7,13.145 c -5.98,15.539 -11.15,22.707 -16.34,29.082 -20.31,24.303 -49.79,32.663 -80.47,32.663 -7.56,0 -54.58,0.4 -79.27,-31.07 -5.58,-7.175 -13.55,-19.917 -13.55,-41.828 0,-40.234 27.89,-56.172 40.64,-62.55 19.12,-9.161 41.43,-13.942 61.75,-19.122 32.66,-8.761 48.6,-15.531 58.16,-30.671 7.17,-11.149 7.57,-22.707 7.57,-27.09 0,-28.278 -19.92,-47.797 -45.81,-55.77 -13.95,-3.988 -26.29,-3.988 -31.87,-3.988 -42.63,0 -63.74,19.519 -71.71,37.051 -3.59,7.566 -5.58,14.738 -6.37,31.468 l -26.69,-13.941 c 11.55,-54.98 50.98,-78.078 104.77,-78.078 36.64,0 56.96,10.758 70.11,19.918 30.27,21.91 34.66,49.391 34.66,64.141 z m -428.65,-76.891 v 281.251 h -26.69 V 730.379 h 26.69 z m -232.25,257.746 v 23.505 h -203.97 v -23.505 h 88.44 V 730.379 h 26.69 v 257.746 h 88.84 v 0" /><path
         id="path24"
         style="fill:#181817;fill-opacity:1;fill-rule:evenodd;stroke:none"
         d="m 2639.64,896.5 v 81.668 h 37.86 c 43.01,0 53.37,-19.121 53.37,-40.637 0,-19.121 -10.36,-41.031 -51.38,-41.031 z m 93.63,-166.922 h 71.31 l -69.72,126.281 c 38.64,11.571 55.77,52.59 55.77,84.067 0,49.797 -35.86,89.234 -98.8,89.234 H 2579.89 V 729.578 h 59.75 v 118.313 h 35.06 l 58.57,-118.313 z m -556.14,0 h 191.22 v 53.383 h -131.46 v 71.309 h 127.88 v 53.39 h -127.88 v 68.121 h 131.46 v 53.379 H 2177.13 V 729.578 Z m -409.52,51 v 197.59 h 45.81 c 67.72,0 89.24,-48.203 89.24,-98.398 0,-46.61 -23.11,-99.192 -84.46,-99.192 h -50.59 z m -59.76,-51 h 114.33 c 76.49,0 142.62,54.184 142.62,149.793 0,96.41 -53.38,149.789 -144.21,149.789 H 1707.85 V 729.578 Z M 1425.4,853.48 c 0,-49.789 -22.3,-76.089 -64.93,-76.089 -42.63,0 -64.94,26.3 -64.94,76.089 v 175.68 h -59.75 V 853.879 c 0,-93.617 59.36,-129.867 124.69,-129.867 65.33,0 124.69,36.25 124.69,129.867 V 1029.16 H 1425.4 V 853.48 Z M 976.438,729.578 h 65.732 L 934.605,1029.16 H 871.664 L 762.512,729.578 h 64.535 l 19.519,62.543 h 109.551 l 20.321,-62.543 z m -36.25,111.152 h -76.891 l 37.848,116.325 h 0.793 L 940.188,840.73 Z M 410.746,729.578 h 174.883 v 55.781 H 470.504 V 1029.16 H 410.746 V 729.578 Z m -402.75381,0 H 67.7422 v 109.551 h 42.6328 c 47.805,0 99.191,25.902 99.191,94.82 0,73.701 -56.964,95.211 -103.976,95.211 H 7.99219 V 729.578 Z M 67.7422,890.129 v 88.039 h 33.8668 c 34.258,0 48.2,-23.902 48.2,-44.219 0,-19.922 -9.161,-43.82 -48.598,-43.82 H 67.7422 v 0" /><g
         transform="scale(10)"
         id="g26"><text
           id="text30"
           style="font-variant:normal;font-weight:300;font-size:17px;font-family:AkzidenzGroteskBQ;-inkscape-font-specification:AkzidenzGroteskBQ-Light;writing-mode:lr-tb;fill:#181817;fill-opacity:1;fill-rule:nonzero;stroke:none"
           transform="matrix(1,0,0,-1,0,36.6621)"><tspan
             id="tspan28"
             y="0"
             x="0 15.040002 28.312004 44.780312 58.052315 64.94928 79.989281 93.261284 107.24709 120.71108 129.48308 142.75508 153.49438 165.98508 178.20337 187.41737 196.18938 209.46138 216.35837 231.39835 244.67035 258.65665">GEMEINSAM STATT EINSAM</tspan></text>
</g></g></g></svg>